<?xml version="1.0" standalone="no"?>
<!DOCTYPE svg PUBLIC "-//W3C//DTD SVG 20010904//EN"
 "http://www.w3.org/TR/2001/REC-SVG-20010904/DTD/svg10.dtd">
<svg version="1.0" xmlns="http://www.w3.org/2000/svg"
 width="320.000000pt" height="320.000000pt" viewBox="0 0 320.000000 320.000000"
 preserveAspectRatio="xMidYMid meet">
<metadata>
Created by potrace 1.11, written by Peter Selinger 2001-2013
</metadata>
<g transform="translate(0.000000,320.000000) scale(0.100000,-0.100000)"
fill="#000000" stroke="none">
<path d="M200 1600 l0 -1400 1400 0 1400 0 0 1400 0 1400 -1400 0 -1400 0 0
-1400z m2600 0 l0 -1200 -1200 0 -1200 0 0 1200 0 1200 1200 0 1200 0 0 -1200z"/>
<path d="M600 1596 l0 -696 274 0 c150 0 295 4 322 9 191 36 285 131 332 333
22 98 25 643 3 728 -33 133 -117 248 -213 291 -52 24 -60 24 -385 27 l-333 3
0 -695z m510 419 c63 -33 65 -44 65 -420 0 -320 -1 -342 -20 -372 -25 -42 -70
-63 -134 -63 l-51 0 0 435 0 435 55 0 c31 0 69 -7 85 -15z"/>
<path d="M1680 1596 l0 -696 310 0 c191 0 329 4 362 11 194 41 300 198 285
424 -6 99 -35 172 -88 220 -41 37 -98 65 -133 65 -13 0 -3 9 29 24 62 29 107
76 137 141 19 42 23 67 23 155 0 90 -4 113 -24 158 -30 66 -103 134 -179 164
-55 21 -71 23 -389 26 l-333 3 0 -695z m506 419 c89 -37 85 -216 -6 -262 -14
-7 -49 -13 -77 -13 l-53 0 0 145 0 145 50 0 c28 0 66 -7 86 -15z m20 -534 c63
-39 83 -164 39 -254 -23 -49 -59 -67 -135 -67 l-60 0 0 170 0 170 63 0 c43 0
71 -6 93 -19z"/>
</g>
</svg>
