<?xml version="1.0" standalone="no"?>
<!DOCTYPE svg PUBLIC "-//W3C//DTD SVG 20010904//EN"
 "http://www.w3.org/TR/2001/REC-SVG-20010904/DTD/svg10.dtd">
<svg version="1.0" xmlns="http://www.w3.org/2000/svg"
 width="320.000000pt" height="320.000000pt" viewBox="0 0 320.000000 320.000000"
 preserveAspectRatio="xMidYMid meet">
<metadata>
Created by potrace 1.11, written by Peter Selinger 2001-2013
</metadata>
<g transform="translate(0.000000,320.000000) scale(0.100000,-0.100000)"
fill="#000000" stroke="none">
<path d="M0 1600 l0 -1600 1600 0 1600 0 0 1600 0 1600 -1600 0 -1600 0 0
-1600z m2970 0 l0 -1370 -1370 0 -1370 0 0 1370 0 1370 1370 0 1370 0 0 -1370z"/>
<path d="M380 1585 l0 -687 303 4 c336 5 388 13 525 80 85 42 205 159 249 243
62 118 78 200 78 390 -1 158 -3 176 -28 252 -64 193 -192 310 -407 374 -69 20
-101 22 -397 26 l-323 5 0 -687z m625 354 c106 -53 149 -153 149 -344 0 -138
-16 -205 -66 -281 -49 -73 -119 -105 -243 -112 l-95 -5 0 388 0 388 103 -5
c83 -4 111 -9 152 -29z"/>
<path d="M1790 1584 l0 -686 343 4 c294 4 350 7 397 22 134 44 230 118 277
215 25 51 28 66 28 161 -1 89 -4 112 -24 152 -30 62 -97 122 -160 145 -52 18
-66 33 -33 33 29 0 98 51 133 98 40 55 59 119 59 202 0 192 -116 294 -373 329
-43 6 -206 11 -363 11 l-284 0 0 -686z m554 395 c60 -17 86 -49 86 -108 0 -93
-57 -131 -197 -131 l-73 0 0 125 0 125 73 0 c39 0 89 -5 111 -11z m40 -529
c92 -47 99 -181 13 -244 -23 -17 -47 -21 -132 -24 l-105 -4 0 147 0 147 98 -4
c60 -2 108 -9 126 -18z"/>
</g>
</svg>
